<svg data-v-423bf9ae="" xmlns="http://www.w3.org/2000/svg" viewBox="0 0 440 110" class="iconLeft"><!----><!----><!----><g data-v-423bf9ae="" id="66c470d1-8abe-4cf7-94b9-88dd1a65d60b" fill="#193655" transform="matrix(5.876591554929072,0,0,5.876591554929072,127.09725311766908,3.9795766719408405)"><path d="M5.49 3.54L5.49 3.54L5.49 3.54Q7.56 3.54 9.03 5.04L9.03 5.04L9.03 5.04Q10.51 6.52 10.51 8.68L10.51 8.68L10.51 8.68Q10.51 10.82 9.06 12.28L9.06 12.28L9.06 12.28Q7.59 13.75 5.50 13.75L5.50 13.75L5.50 13.75Q3.30 13.75 1.86 12.24L1.86 12.24L1.86 12.24Q0.42 10.74 0.42 8.64L0.42 8.64L0.42 8.64Q0.42 8.43 0.44 8.18L0.44 8.18L0.44 8.18Q0.46 7.94 0.50 7.67L0.50 7.67L0.50 7.67Q0.55 7.41 0.62 7.16L0.62 7.16L0.62 7.16Q0.69 6.92 0.80 6.71L0.80 6.71L0.80 6.71Q1.02 6.26 1.43 5.98L1.43 5.98L1.43 5.98Q1.83 5.70 2.29 5.60L2.29 5.60L2.29 5.60Q2.74 5.50 3.20 5.58L3.20 5.58L3.20 5.58Q3.65 5.66 3.99 5.89L3.99 5.89L3.99 5.89Q4.33 6.13 4.47 6.55L4.47 6.55L4.47 6.55Q4.62 6.96 4.48 7.52L4.48 7.52L4.48 7.52Q4.21 7.20 3.83 7.11L3.83 7.11L3.83 7.11Q3.44 7.03 3.09 7.20L3.09 7.20L3.09 7.20Q2.74 7.36 2.51 7.78L2.51 7.78L2.51 7.78Q2.27 8.20 2.30 8.89L2.30 8.89L2.30 8.89Q2.35 10.35 3.44 11.23L3.44 11.23L3.44 11.23Q4.34 11.97 5.50 11.97L5.50 11.97L5.50 11.97Q6.80 11.97 7.73 11.02L7.73 11.02L7.73 11.02Q8.65 10.05 8.65 8.67L8.65 8.67L8.65 8.67Q8.65 7.28 7.73 6.31L7.73 6.31L7.73 6.31Q6.78 5.36 5.46 5.36L5.46 5.36L5.46 5.36Q4.84 5.36 4.34 5.54L4.34 5.54L4.34 5.54Q4.09 5.32 3.75 5.19L3.75 5.19L3.75 5.19Q3.40 5.07 3.02 5.05L3.02 5.05L3.02 5.05Q2.63 5.04 2.25 5.14L2.25 5.14L2.25 5.14Q1.86 5.24 1.53 5.45L1.53 5.45L1.53 5.45Q2.11 4.72 2.94 4.23L2.94 4.23L2.94 4.23Q4.13 3.54 5.49 3.54ZM11.63 13.52L11.63 5.21L11.63 5.21Q11.63 4.91 11.73 4.65L11.73 4.65L11.73 4.65Q11.82 4.38 12.00 4.17L12.00 4.17L12.00 4.17Q12.18 3.96 12.45 3.84L12.45 3.84L12.45 3.84Q12.73 3.72 13.09 3.72L13.09 3.72L13.40 3.72L17.63 10.18L17.63 3.72L19.47 3.72L19.47 13.52L17.70 13.52L13.48 7.10L13.48 13.52L11.63 13.52ZM20.87 5.57L20.87 3.72L27.58 3.72L27.58 3.72Q27.58 4.16 27.45 4.50L27.45 4.50L27.45 4.50Q27.33 4.84 27.12 5.08L27.12 5.08L27.12 5.08Q26.91 5.32 26.63 5.45L26.63 5.45L26.63 5.45Q26.36 5.57 26.05 5.57L26.05 5.57L24.93 5.57L24.93 13.52L23.04 13.52L23.04 5.57L20.87 5.57ZM30.45 3.72L34.48 3.72L34.48 5.56L30.70 5.56L30.70 7.73L34.48 7.73L34.48 7.73Q34.47 8.05 34.38 8.37L34.38 8.37L34.38 8.37Q34.30 8.69 34.12 8.95L34.12 8.95L34.12 8.95Q33.94 9.20 33.65 9.36L33.65 9.36L33.65 9.36Q33.36 9.52 32.94 9.52L32.94 9.52L30.70 9.52L30.70 11.69L34.48 11.69L34.48 13.52L28.84 13.52L28.84 5.42L28.84 5.42Q28.84 4.61 29.30 4.17L29.30 4.17L29.30 4.17Q29.75 3.72 30.45 3.72L30.45 3.72ZM43.83 7.07L43.83 7.07L43.83 7.07Q43.64 6.55 43.22 6.19L43.22 6.19L43.22 6.19Q42.80 5.82 42.26 5.62L42.26 5.62L42.26 5.62Q41.72 5.42 41.12 5.37L41.12 5.37L41.12 5.37Q40.52 5.32 39.98 5.43L39.98 5.43L39.98 5.43Q39.41 5.56 38.96 5.86L38.96 5.86L38.96 5.86Q38.50 6.16 38.19 6.59L38.19 6.59L38.19 6.59Q37.87 7.01 37.70 7.53L37.70 7.53L37.70 7.53Q37.53 8.05 37.53 8.61L37.53 8.61L37.53 8.61Q37.53 9.66 37.98 10.40L37.98 10.40L37.98 10.40Q38.43 11.13 39.12 11.52L39.12 11.52L39.12 11.52Q39.80 11.91 40.61 11.94L40.61 11.94L40.61 11.94Q41.43 11.97 42.15 11.63L42.15 11.63L42.15 11.63Q42.78 11.35 43.57 10.54L43.57 10.54L44.77 11.84L44.77 11.84Q44.30 12.33 43.85 12.68L43.85 12.68L43.85 12.68Q43.40 13.03 42.92 13.26L42.92 13.26L42.92 13.26Q42.43 13.48 41.90 13.59L41.90 13.59L41.90 13.59Q41.36 13.71 40.73 13.71L40.73 13.71L40.73 13.71Q39.59 13.71 38.72 13.34L38.72 13.34L38.72 13.34Q37.86 12.98 37.24 12.37L37.24 12.37L37.24 12.37Q36.62 11.76 36.27 10.97L36.27 10.97L36.27 10.97Q35.91 10.18 35.80 9.32L35.80 9.32L35.80 9.32Q35.69 8.47 35.84 7.62L35.84 7.62L35.84 7.62Q35.99 6.78 36.40 6.05L36.40 6.05L36.40 6.05Q36.79 5.36 37.29 4.89L37.29 4.89L37.29 4.89Q37.79 4.42 38.37 4.14L38.37 4.14L38.37 4.14Q38.95 3.85 39.60 3.72L39.60 3.72L39.60 3.72Q40.25 3.60 40.95 3.58L40.95 3.58L40.95 3.58Q41.44 3.58 41.98 3.68L41.98 3.68L41.98 3.68Q42.52 3.77 43.00 3.96L43.00 3.96L43.00 3.96Q43.48 4.14 43.86 4.44L43.86 4.44L43.86 4.44Q44.24 4.73 44.39 5.12L44.39 5.12L44.39 5.12Q44.55 5.52 44.44 6.00L44.44 6.00L44.44 6.00Q44.32 6.48 43.83 7.07ZM47.92 3.72L47.92 3.72L47.92 7.73L51.20 7.73L51.20 3.72L53.09 3.72L53.09 13.52L51.20 13.52L51.20 9.52L49.34 9.52L49.34 9.52Q49.10 9.52 48.86 9.46L48.86 9.46L48.86 9.46Q48.62 9.41 48.43 9.28L48.43 9.28L48.43 9.28Q48.24 9.16 48.10 8.95L48.10 8.95L48.10 8.95Q47.96 8.75 47.92 8.44L47.92 8.44L47.92 13.52L46.03 13.52L46.03 5.22L46.03 5.22Q46.03 4.83 46.19 4.54L46.19 4.54L46.19 4.54Q46.35 4.26 46.61 4.07L46.61 4.07L46.61 4.07Q46.87 3.89 47.22 3.81L47.22 3.81L47.22 3.81Q47.56 3.72 47.92 3.72Z"></path></g><defs data-v-423bf9ae=""><linearGradient data-v-423bf9ae="" gradientTransform="rotate(25)" id="3de3c802-1585-4629-9bcc-a5993ea0c231" x1="0%" y1="0%" x2="100%" y2="0%"><stop data-v-423bf9ae="" offset="0%" style="stop-color: rgb(81, 164, 251); stop-opacity: 1;"></stop><stop data-v-423bf9ae="" offset="100%" style="stop-color: rgb(81, 164, 251); stop-opacity: 1;"></stop></linearGradient></defs><g data-v-423bf9ae="" id="9e26fdb7-b8b5-4cfb-a21b-caa34185bf0d" transform="matrix(1.1033555772569446,0,0,1.1033555772569446,-3.1419726159423647,-0.9048750541897306)" stroke="none" fill="url(#3de3c802-1585-4629-9bcc-a5993ea0c231)"><path d="M81.263 1.182h-56.99c-15.275 0-20.797 5.312-20.797 21.18v57.192c0 15.373 5.522 20.93 20.796 20.93h56.991c15.403 0 21.515-5.557 21.515-20.93V22.362c0-15.868-5.912-21.18-21.515-21.18zM61.226 29.796h6.995L45.688 71.87h-8.092M70.12 36.538l.009-6.695 22.37 17.635c-.032 2.082.032 4.482 0 6.564L70.13 71.676l.018-6.755L88.508 50.79zM17.746 50.789l18.361 14.132.018 6.755-22.37-17.634c-.032-2.082.032-4.482 0-6.564l22.37-17.635.01 6.695z"></path></g><!----></svg>